<mxfile host="app.diagrams.net" modified="2023-05-17T19:38:31.998Z" agent="Mozilla/5.0 (Macintosh; Intel Mac OS X 10.15; rv:109.0) Gecko/20100101 Firefox/113.0" etag="w1ZBb-9gC_dGLj82IJYN" version="21.3.2" type="device">
  <diagram name="Page-1" id="oT7FujqdO3Rk_ueI1f_w">
    <mxGraphModel dx="2074" dy="1074" grid="1" gridSize="10" guides="1" tooltips="1" connect="1" arrows="1" fold="1" page="1" pageScale="1" pageWidth="1100" pageHeight="850" background="#ffffff" math="0" shadow="0">
      <root>
        <mxCell id="0" />
        <mxCell id="1" parent="0" />
        <mxCell id="hay_Qiz9G32mWAZj3tgY-4" style="edgeStyle=orthogonalEdgeStyle;rounded=0;orthogonalLoop=1;jettySize=auto;html=1;exitX=0.5;exitY=1;exitDx=0;exitDy=0;entryX=0;entryY=0.5;entryDx=0;entryDy=0;strokeColor=#000000;strokeWidth=2;" edge="1" parent="1" source="hay_Qiz9G32mWAZj3tgY-1" target="hay_Qiz9G32mWAZj3tgY-5">
          <mxGeometry relative="1" as="geometry">
            <mxPoint x="280" y="460" as="targetPoint" />
          </mxGeometry>
        </mxCell>
        <mxCell id="hay_Qiz9G32mWAZj3tgY-1" value="&lt;font style=&quot;font-size: 14px;&quot;&gt;ObtainRisk Data&lt;/font&gt;" style="rounded=0;whiteSpace=wrap;html=1;fillColor=#e3c800;fontColor=#000000;strokeColor=#B09500;" vertex="1" parent="1">
          <mxGeometry x="130" y="330" width="120" height="60" as="geometry" />
        </mxCell>
        <mxCell id="hay_Qiz9G32mWAZj3tgY-2" value="&lt;font style=&quot;font-size: 14px;&quot;&gt;Application&lt;/font&gt;" style="rounded=0;whiteSpace=wrap;html=1;fillColor=#1ba1e2;fontColor=#ffffff;strokeColor=#006EAF;" vertex="1" parent="1">
          <mxGeometry x="800" y="290" width="120" height="60" as="geometry" />
        </mxCell>
        <mxCell id="hay_Qiz9G32mWAZj3tgY-10" style="edgeStyle=orthogonalEdgeStyle;rounded=0;orthogonalLoop=1;jettySize=auto;html=1;exitX=1;exitY=0.5;exitDx=0;exitDy=0;entryX=0;entryY=0.5;entryDx=0;entryDy=0;strokeColor=#000000;strokeWidth=2;" edge="1" parent="1" source="hay_Qiz9G32mWAZj3tgY-5" target="hay_Qiz9G32mWAZj3tgY-9">
          <mxGeometry relative="1" as="geometry" />
        </mxCell>
        <mxCell id="hay_Qiz9G32mWAZj3tgY-5" value="&lt;font style=&quot;font-size: 14px;&quot;&gt;Analyze Risk Data Sets&lt;/font&gt;" style="rounded=0;whiteSpace=wrap;html=1;fillColor=#e3c800;fontColor=#000000;strokeColor=#B09500;" vertex="1" parent="1">
          <mxGeometry x="320" y="430" width="120" height="60" as="geometry" />
        </mxCell>
        <mxCell id="hay_Qiz9G32mWAZj3tgY-11" style="edgeStyle=orthogonalEdgeStyle;rounded=0;orthogonalLoop=1;jettySize=auto;html=1;exitX=1;exitY=0.5;exitDx=0;exitDy=0;entryX=0.5;entryY=1;entryDx=0;entryDy=0;strokeColor=#000000;strokeWidth=2;" edge="1" parent="1" source="hay_Qiz9G32mWAZj3tgY-9" target="hay_Qiz9G32mWAZj3tgY-2">
          <mxGeometry relative="1" as="geometry" />
        </mxCell>
        <mxCell id="hay_Qiz9G32mWAZj3tgY-12" value="&lt;font style=&quot;font-size: 14px;&quot;&gt;Application Consumes Risk Data&lt;/font&gt;" style="edgeLabel;html=1;align=center;verticalAlign=middle;resizable=0;points=[];fontColor=#000000;labelBackgroundColor=none;" vertex="1" connectable="0" parent="hay_Qiz9G32mWAZj3tgY-11">
          <mxGeometry x="-0.2923" y="1" relative="1" as="geometry">
            <mxPoint x="114" y="-29" as="offset" />
          </mxGeometry>
        </mxCell>
        <mxCell id="hay_Qiz9G32mWAZj3tgY-9" value="&lt;font style=&quot;font-size: 14px;&quot;&gt;Select a Risk Data Sets&lt;/font&gt;" style="rounded=0;whiteSpace=wrap;html=1;fillColor=#e3c800;fontColor=#000000;strokeColor=#B09500;" vertex="1" parent="1">
          <mxGeometry x="550" y="430" width="120" height="60" as="geometry" />
        </mxCell>
        <mxCell id="hay_Qiz9G32mWAZj3tgY-16" style="edgeStyle=orthogonalEdgeStyle;rounded=0;orthogonalLoop=1;jettySize=auto;html=1;exitX=1;exitY=0.5;exitDx=0;exitDy=0;entryX=0;entryY=0.5;entryDx=0;entryDy=0;strokeColor=#000000;strokeWidth=2;" edge="1" parent="1" source="hay_Qiz9G32mWAZj3tgY-13" target="hay_Qiz9G32mWAZj3tgY-15">
          <mxGeometry relative="1" as="geometry" />
        </mxCell>
        <mxCell id="hay_Qiz9G32mWAZj3tgY-13" value="&lt;font style=&quot;font-size: 14px;&quot;&gt;Stakeholder Interviews&lt;/font&gt;" style="rounded=0;whiteSpace=wrap;html=1;fillColor=#76608a;fontColor=#ffffff;strokeColor=#432D57;" vertex="1" parent="1">
          <mxGeometry x="320" y="140" width="120" height="60" as="geometry" />
        </mxCell>
        <mxCell id="hay_Qiz9G32mWAZj3tgY-17" style="edgeStyle=orthogonalEdgeStyle;rounded=0;orthogonalLoop=1;jettySize=auto;html=1;exitX=1;exitY=0.5;exitDx=0;exitDy=0;entryX=0.5;entryY=0;entryDx=0;entryDy=0;strokeColor=#000000;strokeWidth=2;" edge="1" parent="1" source="hay_Qiz9G32mWAZj3tgY-15" target="hay_Qiz9G32mWAZj3tgY-2">
          <mxGeometry relative="1" as="geometry" />
        </mxCell>
        <mxCell id="hay_Qiz9G32mWAZj3tgY-15" value="&lt;font style=&quot;font-size: 14px;&quot;&gt;Analyze Interview Data&lt;br&gt;&lt;/font&gt;" style="rounded=0;whiteSpace=wrap;html=1;fillColor=#76608a;fontColor=#ffffff;strokeColor=#432D57;" vertex="1" parent="1">
          <mxGeometry x="550" y="140" width="120" height="60" as="geometry" />
        </mxCell>
        <mxCell id="hay_Qiz9G32mWAZj3tgY-19" value="" style="rounded=0;whiteSpace=wrap;html=1;fillColor=none;dashed=1;strokeColor=#000000;strokeWidth=3;" vertex="1" parent="1">
          <mxGeometry x="290" y="110" width="430" height="120" as="geometry" />
        </mxCell>
        <mxCell id="hay_Qiz9G32mWAZj3tgY-20" value="" style="rounded=0;whiteSpace=wrap;html=1;fillColor=none;dashed=1;strokeColor=#000000;strokeWidth=3;" vertex="1" parent="1">
          <mxGeometry x="100" y="300" width="640" height="220" as="geometry" />
        </mxCell>
        <mxCell id="hay_Qiz9G32mWAZj3tgY-21" value="" style="rounded=0;whiteSpace=wrap;html=1;fillColor=none;dashed=1;strokeColor=#000000;strokeWidth=3;" vertex="1" parent="1">
          <mxGeometry x="780" y="100" width="230" height="420" as="geometry" />
        </mxCell>
        <mxCell id="hay_Qiz9G32mWAZj3tgY-22" value="&lt;font style=&quot;font-size: 14px;&quot; color=&quot;#000000&quot;&gt;Objective 1&lt;/font&gt;" style="text;html=1;align=center;verticalAlign=middle;resizable=0;points=[];autosize=1;strokeColor=none;fillColor=none;" vertex="1" parent="1">
          <mxGeometry x="90" y="270" width="90" height="30" as="geometry" />
        </mxCell>
        <mxCell id="hay_Qiz9G32mWAZj3tgY-23" value="&lt;font style=&quot;font-size: 14px;&quot; color=&quot;#000000&quot;&gt;Objective 2&lt;br&gt;&lt;/font&gt;" style="text;html=1;align=center;verticalAlign=middle;resizable=0;points=[];autosize=1;strokeColor=none;fillColor=none;" vertex="1" parent="1">
          <mxGeometry x="290" y="70" width="90" height="30" as="geometry" />
        </mxCell>
        <mxCell id="hay_Qiz9G32mWAZj3tgY-24" value="&lt;font style=&quot;font-size: 14px;&quot; color=&quot;#000000&quot;&gt;Objective 3&lt;br&gt;&lt;/font&gt;" style="text;html=1;align=center;verticalAlign=middle;resizable=0;points=[];autosize=1;strokeColor=none;fillColor=none;" vertex="1" parent="1">
          <mxGeometry x="780" y="70" width="90" height="30" as="geometry" />
        </mxCell>
        <mxCell id="hay_Qiz9G32mWAZj3tgY-18" value="&lt;font style=&quot;font-size: 14px;&quot; color=&quot;#000000&quot;&gt;Influences Data Presentation&lt;/font&gt;" style="edgeLabel;html=1;align=center;verticalAlign=middle;resizable=0;points=[];labelBackgroundColor=none;" vertex="1" connectable="0" parent="1">
          <mxGeometry x="883" y="210" as="geometry" />
        </mxCell>
      </root>
    </mxGraphModel>
  </diagram>
</mxfile>
